<svg xmlns="http://www.w3.org/2000/svg" version="1.1" xmlns:xlink="http://www.w3.org/1999/xlink" xmlns:svgjs="http://svgjs.dev/svgjs" width="1000" height="879" viewBox="0 0 1000 879"><g transform="matrix(1,0,0,1,-0.2884270608707311,0.3558704453441237)"><svg viewBox="0 0 281 247" data-background-color="#ffffff" preserveAspectRatio="xMidYMid meet" height="879" width="1000" xmlns="http://www.w3.org/2000/svg" xmlns:xlink="http://www.w3.org/1999/xlink"><g id="tight-bounds" transform="matrix(1,0,0,1,0.08104800410467305,-0.09999999999999432)"><svg viewBox="0 0 280.83790276756577 247.2" height="247.2" width="280.83790276756577"><g><svg viewBox="0 0 395.52 348.1458273134912" height="247.2" width="280.83790276756577"><g transform="matrix(1,0,0,1,0,254.401838044375)"><svg viewBox="0 0 395.52 93.74398926911623" height="93.74398926911623" width="395.52"><g><svg viewBox="0 0 395.52 93.74398926911623" height="93.74398926911623" width="395.52"><g><svg viewBox="0 0 395.52 50.56102838778789" height="50.56102838778789" width="395.52"><g transform="matrix(1,0,0,1,0,0)"><svg width="395.52" viewBox="3.5 -35.150001525878906 280.0299987792969 35.80000305175781" height="50.56102838778789" data-palette-color="#ff5858"><path d="M31.9-34.5L37.3-34.5Q39.25-34.5 39.3-32.45L39.3-32.45 40.7 0 35.8 0 34.55-30.45 33.55-30.45 26.25-5.7Q25.85-4.05 24.15-4.05L24.15-4.05 20.05-4.05Q18.3-4.05 17.85-5.7L17.85-5.7 10.55-30.45 9.55-30.45 8.4 0 3.5 0 4.85-32.45Q4.95-34.5 6.85-34.5L6.85-34.5 12.25-34.5Q13.85-34.5 14.35-32.85L14.35-32.85 20.4-12.45Q20.8-11.3 21.05-10.15 21.3-9 21.65-7.75L21.65-7.75 22.5-7.75Q22.85-9 23.13-10.15 23.4-11.3 23.75-12.55L23.75-12.55 29.8-32.85Q30.2-34.5 31.9-34.5L31.9-34.5ZM57.35-34.5L62.45-34.5Q63.1-34.5 63.6-34.13 64.1-33.75 64.3-33.15L64.3-33.15 75.2 0 70 0 61.4-27.75Q61.2-28.5 61-29.25 60.8-30 60.6-30.65L60.6-30.65 59.2-30.65Q59-30 58.8-29.25 58.6-28.5 58.35-27.75L58.35-27.75 49.75 0 44.6 0 55.5-33.15Q55.7-33.75 56.2-34.13 56.7-34.5 57.35-34.5L57.35-34.5ZM51.05-14.65L68.65-14.65 68.65-10.5 51.05-10.5 51.05-14.65ZM91.95-34.95L91.95-34.95Q96.05-34.95 98.57-34.08 101.1-33.2 102.25-31.03 103.4-28.85 103.4-24.95L103.4-24.95Q103.4-22.2 102.75-20.35 102.1-18.5 100.72-17.45 99.35-16.4 97-16.1L97-16.1 97-15.85Q97.85-15.65 98.7-15.05 99.55-14.45 100.3-13.43 101.05-12.4 101.4-10.85L101.4-10.85 104.65 0 99.35 0 96.35-10.75Q95.75-12.65 94.7-13.45 93.65-14.25 91.95-14.25L91.95-14.25Q88.8-14.25 86.55-14.28 84.3-14.3 82.77-14.35 81.25-14.4 80.3-14.4L80.3-14.4 80.45-18.4 91.85-18.4Q94.3-18.45 95.7-18.98 97.1-19.5 97.72-20.85 98.35-22.2 98.35-24.65L98.35-24.65Q98.35-27.1 97.72-28.43 97.1-29.75 95.7-30.28 94.3-30.8 91.85-30.8L91.85-30.8Q87.65-30.8 84.6-30.75 81.55-30.7 80.5-30.7L80.5-30.7 79.8-34.5Q81.7-34.7 83.4-34.8 85.1-34.9 87.12-34.93 89.15-34.95 91.95-34.95ZM79.8-34.5L84.75-34.5 84.75 0 79.8 0 79.8-34.5ZM131.34-34.5L136.54-34.5 126.24-1.4Q126.04-0.85 125.54-0.43 125.04 0 124.39 0L124.39 0 119.44 0Q118.74 0 118.24-0.43 117.74-0.85 117.54-1.4L117.54-1.4 107.29-34.5 112.49-34.5 120.29-7.6Q120.54-6.65 120.79-5.73 121.04-4.8 121.24-3.85L121.24-3.85 122.59-3.85Q122.79-4.8 123.04-5.75 123.29-6.7 123.59-7.65L123.59-7.65 131.34-34.5ZM147.99-34.55L147.99-34.55Q150.49-34.55 153.09-34.55 155.69-34.55 158.22-34.48 160.74-34.4 163.04-34.25L163.04-34.25 162.84-30.4 149.09-30.4Q147.59-30.4 146.89-29.65 146.19-28.9 146.19-27.25L146.19-27.25 146.19-7.25Q146.19-5.6 146.89-4.83 147.59-4.05 149.09-4.05L149.09-4.05 162.84-4.05 163.04-0.25Q160.74-0.1 158.22-0.05 155.69 0 153.09 0.03 150.49 0.05 147.99 0.05L147.99 0.05Q144.89 0.05 143.07-1.63 141.24-3.3 141.19-6.1L141.19-6.1 141.19-28.4Q141.24-31.25 143.07-32.9 144.89-34.55 147.99-34.55ZM142.09-16.25L142.09-20.1 160.89-20.1 160.89-16.25 142.09-16.25ZM169.54-34.5L174.49-34.5 174.49-7.3Q174.49-5.7 175.29-4.93 176.09-4.15 177.74-4.15L177.74-4.15 190.09-4.15 190.34-0.3Q186.99-0.05 183.54 0 180.09 0.05 176.64 0.05L176.64 0.05Q172.84 0.05 171.19-1.83 169.54-3.7 169.54-6.55L169.54-6.55 169.54-34.5ZM207.39-35.15L207.39-35.15Q211.19-35.15 213.86-34.25 216.54-33.35 218.14-31.3 219.74-29.25 220.46-25.8 221.19-22.35 221.19-17.25L221.19-17.25Q221.19-12.2 220.46-8.72 219.74-5.25 218.14-3.2 216.54-1.15 213.86-0.25 211.19 0.65 207.39 0.65L207.39 0.65Q203.59 0.65 200.91-0.25 198.24-1.15 196.61-3.2 194.99-5.25 194.24-8.72 193.49-12.2 193.49-17.25L193.49-17.25Q193.49-22.35 194.24-25.8 194.99-29.25 196.61-31.3 198.24-33.35 200.91-34.25 203.59-35.15 207.39-35.15ZM207.39-30.8L207.39-30.8Q204.14-30.8 202.24-29.55 200.34-28.3 199.56-25.38 198.79-22.45 198.79-17.25L198.79-17.25Q198.79-12.1 199.56-9.15 200.34-6.2 202.24-4.95 204.14-3.7 207.39-3.7L207.39-3.7Q210.64-3.7 212.51-4.95 214.39-6.2 215.19-9.15 215.99-12.1 215.99-17.25L215.99-17.25Q215.99-22.45 215.19-25.38 214.39-28.3 212.51-29.55 210.64-30.8 207.39-30.8ZM248.73-34.5L253.73-34.5 253.73-13.3Q253.73-8.25 252.51-5.18 251.28-2.1 248.53-0.73 245.78 0.65 241.18 0.65L241.18 0.65Q236.38 0.65 233.53-0.73 230.68-2.1 229.41-5.18 228.13-8.25 228.13-13.3L228.13-13.3 228.13-34.5 233.13-34.5 233.13-13.3Q233.13-9.7 233.86-7.58 234.58-5.45 236.31-4.58 238.03-3.7 240.93-3.7L240.93-3.7Q243.83-3.7 245.51-4.58 247.18-5.45 247.96-7.58 248.73-9.7 248.73-13.3L248.73-13.3 248.73-34.5ZM271.78-35.1L271.78-35.1Q274.28-35.05 276.95-34.85 279.63-34.65 282.28-34.05L282.28-34.05 281.93-30.5Q279.78-30.6 277.11-30.65 274.43-30.7 271.93-30.7L271.93-30.7Q270.18-30.7 268.93-30.6 267.68-30.5 266.88-30.05 266.08-29.6 265.7-28.6 265.33-27.6 265.33-25.85L265.33-25.85Q265.33-23.2 266.33-22.13 267.33-21.05 269.58-20.5L269.58-20.5 276.53-18.65Q280.53-17.65 282.03-15.28 283.53-12.9 283.53-8.9L283.53-8.9Q283.53-5.9 282.86-4.05 282.18-2.2 280.75-1.2 279.33-0.2 277.08 0.2 274.83 0.6 271.73 0.6L271.73 0.6Q270.03 0.6 267.23 0.45 264.43 0.3 260.78-0.4L260.78-0.4 261.13-4.05Q264.08-3.95 265.95-3.88 267.83-3.8 269.18-3.8 270.53-3.8 271.88-3.8L271.88-3.8Q274.38-3.8 275.83-4.17 277.28-4.55 277.88-5.68 278.48-6.8 278.48-8.95L278.48-8.95Q278.48-10.8 278.06-11.85 277.63-12.9 276.7-13.43 275.78-13.95 274.33-14.3L274.33-14.3 267.18-16.25Q263.43-17.3 261.88-19.65 260.33-22 260.33-25.9L260.33-25.9Q260.33-28.9 261-30.75 261.68-32.6 263.08-33.52 264.48-34.45 266.63-34.77 268.78-35.1 271.78-35.1Z" opacity="1" transform="matrix(1,0,0,1,0,0)" fill="#ff5858" class="undefined-text-0" data-fill-palette-color="primary" id="text-0"></path></svg></g></svg></g><g transform="matrix(1,0,0,1,0,62.49727372546331)"><svg viewBox="0 0 395.52 31.24671554365292" height="31.24671554365292" width="395.52"><g transform="matrix(1,0,0,1,0,0)"><svg width="395.52" viewBox="2.549999952316284 -35 449.3600158691406 35.5" height="31.24671554365292" data-palette-color="#ed2647"><path d="M12.95-25.5L12.95-25.5Q14.6-25.5 18.55-24.9L18.55-24.9 19.75-24.75 19.6-21.7Q15.6-22.15 13.7-22.15L13.7-22.15Q9.45-22.15 7.93-20.13 6.4-18.1 6.4-12.63 6.4-7.15 7.83-5 9.25-2.85 13.75-2.85L13.75-2.85 19.65-3.3 19.8-0.2Q15.15 0.5 12.85 0.5L12.85 0.5Q7 0.5 4.78-2.5 2.55-5.5 2.55-12.63 2.55-19.75 4.95-22.63 7.35-25.5 12.95-25.5ZM85.67-12.55Q85.67-19.4 88.12-22.45 90.57-25.5 96.4-25.5 102.22-25.5 104.65-22.45 107.07-19.4 107.07-12.55 107.07-5.7 104.77-2.6 102.47 0.5 96.37 0.5 90.27 0.5 87.97-2.6 85.67-5.7 85.67-12.55ZM89.52-12.63Q89.52-7.15 90.85-4.95 92.17-2.75 96.4-2.75 100.62-2.75 101.92-4.93 103.22-7.1 103.22-12.6 103.22-18.1 101.77-20.18 100.32-22.25 96.4-22.25 92.47-22.25 91-20.18 89.52-18.1 89.52-12.63ZM178.59-20.3L178.59 0 174.84 0 174.84-25 178.54-25 178.54-23.25Q182.29-25.5 185.84-25.5L185.84-25.5Q190.49-25.5 192.34-22.95L192.34-22.95Q193.99-23.95 196.62-24.73 199.24-25.5 201.24-25.5L201.24-25.5Q206.24-25.5 207.97-22.83 209.69-20.15 209.69-13.2L209.69-13.2 209.69 0 205.94 0 205.94-13.1Q205.94-18.3 204.94-20.23 203.94-22.15 200.69-22.15L200.69-22.15Q199.04-22.15 197.29-21.68 195.54-21.2 194.59-20.75L194.59-20.75 193.64-20.3Q194.29-18.65 194.29-13L194.29-13 194.29 0 190.54 0 190.54-12.9Q190.54-18.3 189.57-20.23 188.59-22.15 185.29-22.15L185.29-22.15Q183.69-22.15 182.02-21.68 180.34-21.2 179.44-20.75L179.44-20.75 178.59-20.3ZM282.06 0L278.31 0 278.31-25 282.06-25 282.06 0ZM282.06-30.65L278.31-30.65 278.31-35 282.06-35 282.06-30.65ZM360.29-25.5L360.29-25.5Q361.94-25.5 365.89-24.9L365.89-24.9 367.09-24.75 366.94-21.7Q362.94-22.15 361.04-22.15L361.04-22.15Q356.79-22.15 355.26-20.13 353.74-18.1 353.74-12.63 353.74-7.15 355.16-5 356.59-2.85 361.09-2.85L361.09-2.85 366.99-3.3 367.14-0.2Q362.49 0.5 360.19 0.5L360.19 0.5Q354.34 0.5 352.11-2.5 349.89-5.5 349.89-12.63 349.89-19.75 352.29-22.63 354.69-25.5 360.29-25.5ZM442.26-22.15L442.26-22.15Q436.81-22.15 436.81-18.35L436.81-18.35Q436.81-16.6 438.06-15.88 439.31-15.15 443.76-14.38 448.21-13.6 450.06-12.2 451.91-10.8 451.91-6.95 451.91-3.1 449.43-1.3 446.96 0.5 442.21 0.5L442.21 0.5Q439.11 0.5 434.91-0.2L434.91-0.2 433.41-0.45 433.61-3.7Q439.31-2.85 442.21-2.85 445.11-2.85 446.63-3.78 448.16-4.7 448.16-6.88 448.16-9.05 446.86-9.83 445.56-10.6 441.16-11.3 436.76-12 434.91-13.35 433.06-14.7 433.06-18.35 433.06-22 435.63-23.75 438.21-25.5 442.06-25.5L442.06-25.5Q445.11-25.5 449.71-24.8L449.71-24.8 451.11-24.55 451.01-21.35Q445.46-22.15 442.26-22.15Z" opacity="1" transform="matrix(1,0,0,1,0,0)" fill="#ed2647" class="undefined-text-1" data-fill-palette-color="secondary" id="text-1"></path></svg></g></svg></g></svg></g></svg></g><g transform="matrix(1,0,0,1,82.4953263154879,0)"><svg viewBox="0 0 230.52934736902418 230.52934736902418" height="230.52934736902418" width="230.52934736902418"><g><svg></svg></g><g id="icon-0"><svg viewBox="0 0 230.52934736902418 230.52934736902418" height="230.52934736902418" width="230.52934736902418"><g><path d="M0 115.265c0-63.659 51.606-115.265 115.265-115.265 63.659 0 115.265 51.606 115.264 115.265 0 63.659-51.606 115.265-115.264 115.264-63.659 0-115.265-51.606-115.265-115.264zM115.265 225.97c61.141 0 110.705-49.564 110.705-110.705 0-61.141-49.564-110.705-110.705-110.705-61.141 0-110.705 49.564-110.705 110.705 0 61.141 49.564 110.705 110.705 110.705z" data-fill-palette-color="accent" fill="#ed2647" stroke="transparent"></path><ellipse rx="114.11202694766696" ry="114.11202694766696" cx="115.26467368451209" cy="115.26467368451209" fill="#ed2647" stroke="transparent" stroke-width="0" fill-opacity="1" data-fill-palette-color="accent"></ellipse></g><g transform="matrix(1,0,0,1,60.45778724748863,45.62635130817898)"><svg viewBox="0 0 109.61377287404692 139.27664475266621" height="139.27664475266621" width="109.61377287404692"><g><svg xmlns="http://www.w3.org/2000/svg" xmlns:xlink="http://www.w3.org/1999/xlink" version="1.1" x="0" y="0" viewBox="11.264999389648438 0.5349993705749512 77.39199829101562 98.33525085449219" enable-background="new 0 0 100 100" xml:space="preserve" width="109.61377287404692" height="139.27664475266621" class="icon-a-0" data-fill-palette-color="quaternary" id="a-0"><g fill="#ffffff" data-fill-palette-color="quaternary"><path d="M88.657 0.849C88.464 4.221 71.34 30.157 49.903 30.157c-21.362 0-38.362-25.736-38.638-29.271 1.494 2.387 4.324 3.997 7.571 3.997 3.393 0 6.333-1.759 7.766-4.325 1.458 2.565 4.397 4.325 7.791 4.325 3.403 0 6.35-1.769 7.778-4.348 1.429 2.579 4.376 4.348 7.778 4.348 3.403 0 6.35-1.769 7.778-4.348 1.429 2.579 4.375 4.348 7.777 4.348 3.403 0 6.35-1.769 7.78-4.348 1.428 2.579 4.374 4.348 7.777 4.348C84.326 4.883 87.17 3.256 88.657 0.849L88.657 0.849zM42.049 12.006l-0.001 9.334c0 4.083 3.31 7.394 7.394 7.394 4.083 0 7.394-3.311 7.394-7.394l-0.004-9.334-1.64 4.687c-1.355-1.676-3.428-2.747-5.75-2.747-2.324 0-4.397 1.072-5.752 2.748L42.049 12.006 42.049 12.006zM55.251 22.706c-0.618 2.637-2.984 4.601-5.809 4.601-2.826 0-5.192-1.964-5.81-4.601H55.251L55.251 22.706zM44.595 37.297c0 1.34 2.185 2.428 4.879 2.428s4.879-1.087 4.879-2.428c0-1.342-2.185-2.428-4.879-2.428S44.595 35.955 44.595 37.297L44.595 37.297zM62.198 40.016l-1.906 12.208c0.14-0.482 0.399-0.967 0.801-1.436l6.231-7.248L62.198 40.016 62.198 40.016zM38.597 52.266l-1.913-12.253-5.131 3.528 6.232 7.248C38.198 51.27 38.46 51.77 38.597 52.266L38.597 52.266zM58.646 62.764v32.084c0 5.363-8.043 5.363-8.043 0V64.215c-0.169-0.668-0.354-1.225-1.161-1.225-0.732 0-0.994 0.559-1.163 1.227v30.631c0 5.363-8.044 5.363-8.044 0v-32.09L38.712 53c0.113 2.932-3.86 5.346-6.349 2.451l-8.779-10.045c-1.255-1.465-1.459-3.852 0.663-5.309l12.325-8.407c0.351-0.391 0.856-0.615 1.56-0.615h11.312 11.31c0.711 0 1.219 0.228 1.568 0.625l12.312 8.397c2.121 1.457 1.917 3.844 0.662 5.309l-8.778 10.045c-2.478 2.881-6.426 0.504-6.351-2.41L58.646 62.764 58.646 62.764z" fill="#ffffff" data-fill-palette-color="quaternary"></path></g></svg></g></svg></g></svg></g></svg></g><g></g></svg></g><defs></defs></svg><rect width="280.83790276756577" height="247.2" fill="none" stroke="none" visibility="hidden"></rect></g></svg></g></svg>